<mxfile host="Electron" modified="2023-05-08T01:37:02.739Z" agent="Mozilla/5.0 (Windows NT 10.0; Win64; x64) AppleWebKit/537.36 (KHTML, like Gecko) draw.io/21.1.2 Chrome/106.0.5249.199 Electron/21.4.3 Safari/537.36" etag="09dRN40YP0sUl6ebaIev" version="21.1.2" type="device">
  <diagram name="Page-1" id="FA9LE8JyE6_nsraOin8c">
    <mxGraphModel dx="2078" dy="973" grid="1" gridSize="10" guides="1" tooltips="1" connect="1" arrows="1" fold="1" page="1" pageScale="1" pageWidth="850" pageHeight="1100" math="0" shadow="0">
      <root>
        <mxCell id="0" />
        <mxCell id="1" parent="0" />
        <mxCell id="q521U4jFGGL9imEUGJbD-22" style="edgeStyle=orthogonalEdgeStyle;orthogonalLoop=1;jettySize=auto;html=1;entryX=0.5;entryY=0;entryDx=0;entryDy=0;entryPerimeter=0;" edge="1" parent="1" source="q521U4jFGGL9imEUGJbD-1" target="q521U4jFGGL9imEUGJbD-6">
          <mxGeometry relative="1" as="geometry" />
        </mxCell>
        <mxCell id="q521U4jFGGL9imEUGJbD-1" value="Recipes Database" style="shape=cylinder3;whiteSpace=wrap;html=1;boundedLbl=1;backgroundOutline=1;size=15;fillColor=#dae8fc;strokeColor=#6c8ebf;shadow=1;" vertex="1" parent="1">
          <mxGeometry x="240" y="330" width="90" height="100" as="geometry" />
        </mxCell>
        <mxCell id="q521U4jFGGL9imEUGJbD-24" style="edgeStyle=orthogonalEdgeStyle;orthogonalLoop=1;jettySize=auto;html=1;exitX=0;exitY=0.5;exitDx=0;exitDy=0;entryX=0.005;entryY=0.242;entryDx=0;entryDy=0;entryPerimeter=0;" edge="1" parent="1" source="q521U4jFGGL9imEUGJbD-2" target="q521U4jFGGL9imEUGJbD-1">
          <mxGeometry relative="1" as="geometry" />
        </mxCell>
        <mxCell id="q521U4jFGGL9imEUGJbD-2" value="Search engine" style="rounded=1;whiteSpace=wrap;html=1;absoluteArcSize=1;arcSize=14;strokeWidth=2;fillColor=#f5f5f5;fontColor=#333333;strokeColor=#666666;glass=0;shadow=1;" vertex="1" parent="1">
          <mxGeometry x="200" y="170" width="170" height="30" as="geometry" />
        </mxCell>
        <mxCell id="q521U4jFGGL9imEUGJbD-23" style="edgeStyle=orthogonalEdgeStyle;orthogonalLoop=1;jettySize=auto;html=1;entryX=0.5;entryY=0;entryDx=0;entryDy=0;entryPerimeter=0;" edge="1" parent="1" source="q521U4jFGGL9imEUGJbD-3" target="q521U4jFGGL9imEUGJbD-1">
          <mxGeometry relative="1" as="geometry" />
        </mxCell>
        <mxCell id="q521U4jFGGL9imEUGJbD-3" value="Recommendation engine" style="rounded=1;whiteSpace=wrap;html=1;absoluteArcSize=1;arcSize=14;strokeWidth=2;fillColor=#f5f5f5;fontColor=#333333;strokeColor=#666666;glass=0;shadow=1;" vertex="1" parent="1">
          <mxGeometry x="200" y="240" width="170" height="30" as="geometry" />
        </mxCell>
        <mxCell id="q521U4jFGGL9imEUGJbD-14" style="edgeStyle=orthogonalEdgeStyle;orthogonalLoop=1;jettySize=auto;html=1;entryX=1;entryY=0.5;entryDx=0;entryDy=0;" edge="1" parent="1" source="q521U4jFGGL9imEUGJbD-4" target="q521U4jFGGL9imEUGJbD-2">
          <mxGeometry relative="1" as="geometry" />
        </mxCell>
        <mxCell id="q521U4jFGGL9imEUGJbD-15" style="edgeStyle=orthogonalEdgeStyle;orthogonalLoop=1;jettySize=auto;html=1;entryX=1;entryY=0.5;entryDx=0;entryDy=0;" edge="1" parent="1" source="q521U4jFGGL9imEUGJbD-4" target="q521U4jFGGL9imEUGJbD-3">
          <mxGeometry relative="1" as="geometry" />
        </mxCell>
        <mxCell id="q521U4jFGGL9imEUGJbD-18" style="edgeStyle=orthogonalEdgeStyle;orthogonalLoop=1;jettySize=auto;html=1;entryX=1;entryY=0.5;entryDx=0;entryDy=0;entryPerimeter=0;exitX=1;exitY=0.5;exitDx=0;exitDy=0;exitPerimeter=0;" edge="1" parent="1" source="q521U4jFGGL9imEUGJbD-4" target="q521U4jFGGL9imEUGJbD-10">
          <mxGeometry relative="1" as="geometry">
            <Array as="points">
              <mxPoint x="830" y="220" />
              <mxPoint x="830" y="750" />
            </Array>
          </mxGeometry>
        </mxCell>
        <mxCell id="q521U4jFGGL9imEUGJbD-40" style="edgeStyle=orthogonalEdgeStyle;orthogonalLoop=1;jettySize=auto;html=1;entryX=0.999;entryY=0.218;entryDx=0;entryDy=0;entryPerimeter=0;exitX=1.004;exitY=0.742;exitDx=0;exitDy=0;exitPerimeter=0;" edge="1" parent="1" source="q521U4jFGGL9imEUGJbD-4" target="q521U4jFGGL9imEUGJbD-9">
          <mxGeometry relative="1" as="geometry">
            <Array as="points">
              <mxPoint x="780" y="266" />
              <mxPoint x="780" y="407" />
            </Array>
          </mxGeometry>
        </mxCell>
        <mxCell id="q521U4jFGGL9imEUGJbD-4" value="Dashboard" style="verticalLabelPosition=bottom;verticalAlign=top;html=1;shape=card;whiteSpace=wrap;size=40;arcSize=0;shadow=1;rounded=0;" vertex="1" parent="1">
          <mxGeometry x="460" y="125" width="300" height="190" as="geometry" />
        </mxCell>
        <mxCell id="q521U4jFGGL9imEUGJbD-21" style="edgeStyle=orthogonalEdgeStyle;orthogonalLoop=1;jettySize=auto;html=1;entryX=0.5;entryY=1;entryDx=0;entryDy=0;entryPerimeter=0;" edge="1" parent="1" source="q521U4jFGGL9imEUGJbD-5" target="q521U4jFGGL9imEUGJbD-6">
          <mxGeometry relative="1" as="geometry">
            <mxPoint x="95" y="755" as="targetPoint" />
            <Array as="points">
              <mxPoint x="95" y="785" />
            </Array>
          </mxGeometry>
        </mxCell>
        <mxCell id="q521U4jFGGL9imEUGJbD-5" value="User&lt;br&gt;Database" style="shape=cylinder3;whiteSpace=wrap;html=1;boundedLbl=1;backgroundOutline=1;size=15;fillColor=#dae8fc;strokeColor=#6c8ebf;shadow=1;" vertex="1" parent="1">
          <mxGeometry x="215" y="755" width="90" height="100" as="geometry" />
        </mxCell>
        <mxCell id="q521U4jFGGL9imEUGJbD-6" value="Recipe&lt;br&gt;Books&lt;br&gt;Database" style="shape=cylinder3;whiteSpace=wrap;html=1;boundedLbl=1;backgroundOutline=1;size=15;fillColor=#dae8fc;strokeColor=#6c8ebf;shadow=1;" vertex="1" parent="1">
          <mxGeometry x="50" y="620" width="90" height="100" as="geometry" />
        </mxCell>
        <mxCell id="q521U4jFGGL9imEUGJbD-20" style="edgeStyle=orthogonalEdgeStyle;orthogonalLoop=1;jettySize=auto;html=1;entryX=-0.002;entryY=0.696;entryDx=0;entryDy=0;entryPerimeter=0;" edge="1" parent="1" source="q521U4jFGGL9imEUGJbD-7" target="q521U4jFGGL9imEUGJbD-9">
          <mxGeometry relative="1" as="geometry" />
        </mxCell>
        <mxCell id="q521U4jFGGL9imEUGJbD-7" value="Cooking tips Database" style="shape=cylinder3;whiteSpace=wrap;html=1;boundedLbl=1;backgroundOutline=1;size=15;fillColor=#dae8fc;strokeColor=#6c8ebf;shadow=1;" vertex="1" parent="1">
          <mxGeometry x="240" y="480" width="90" height="100" as="geometry" />
        </mxCell>
        <mxCell id="q521U4jFGGL9imEUGJbD-30" style="edgeStyle=orthogonalEdgeStyle;orthogonalLoop=1;jettySize=auto;html=1;entryX=-0.028;entryY=0.406;entryDx=0;entryDy=0;entryPerimeter=0;" edge="1" parent="1" source="q521U4jFGGL9imEUGJbD-8" target="q521U4jFGGL9imEUGJbD-1">
          <mxGeometry relative="1" as="geometry">
            <Array as="points">
              <mxPoint x="130" y="75" />
              <mxPoint x="130" y="371" />
            </Array>
          </mxGeometry>
        </mxCell>
        <mxCell id="q521U4jFGGL9imEUGJbD-31" style="edgeStyle=orthogonalEdgeStyle;orthogonalLoop=1;jettySize=auto;html=1;entryX=0;entryY=0;entryDx=0;entryDy=67.5;entryPerimeter=0;" edge="1" parent="1" source="q521U4jFGGL9imEUGJbD-8" target="q521U4jFGGL9imEUGJbD-5">
          <mxGeometry relative="1" as="geometry">
            <mxPoint x="170" y="910" as="targetPoint" />
            <Array as="points">
              <mxPoint x="30" y="75" />
              <mxPoint x="30" y="823" />
            </Array>
          </mxGeometry>
        </mxCell>
        <mxCell id="q521U4jFGGL9imEUGJbD-8" value="Data statistics analysis" style="rounded=1;whiteSpace=wrap;html=1;absoluteArcSize=1;arcSize=14;strokeWidth=2;fillColor=#f5f5f5;fontColor=#333333;strokeColor=#666666;glass=0;shadow=1;" vertex="1" parent="1">
          <mxGeometry x="210" y="60" width="170" height="30" as="geometry" />
        </mxCell>
        <mxCell id="q521U4jFGGL9imEUGJbD-16" style="edgeStyle=orthogonalEdgeStyle;orthogonalLoop=1;jettySize=auto;html=1;entryX=1;entryY=0.5;entryDx=0;entryDy=0;entryPerimeter=0;" edge="1" parent="1" source="q521U4jFGGL9imEUGJbD-9" target="q521U4jFGGL9imEUGJbD-1">
          <mxGeometry relative="1" as="geometry" />
        </mxCell>
        <mxCell id="q521U4jFGGL9imEUGJbD-41" style="edgeStyle=orthogonalEdgeStyle;orthogonalLoop=1;jettySize=auto;html=1;entryX=1.009;entryY=0.204;entryDx=0;entryDy=0;entryPerimeter=0;exitX=1.002;exitY=0.695;exitDx=0;exitDy=0;exitPerimeter=0;" edge="1" parent="1" source="q521U4jFGGL9imEUGJbD-9" target="q521U4jFGGL9imEUGJbD-10">
          <mxGeometry relative="1" as="geometry">
            <Array as="points">
              <mxPoint x="780" y="531" />
              <mxPoint x="780" y="694" />
            </Array>
          </mxGeometry>
        </mxCell>
        <mxCell id="q521U4jFGGL9imEUGJbD-9" value="Recipe page" style="verticalLabelPosition=bottom;verticalAlign=top;html=1;shape=card;whiteSpace=wrap;size=40;arcSize=0;shadow=1;rounded=0;" vertex="1" parent="1">
          <mxGeometry x="460" y="350" width="300" height="260" as="geometry" />
        </mxCell>
        <mxCell id="q521U4jFGGL9imEUGJbD-12" style="edgeStyle=orthogonalEdgeStyle;orthogonalLoop=1;jettySize=auto;html=1;entryX=1;entryY=0.5;entryDx=0;entryDy=0;" edge="1" parent="1" source="q521U4jFGGL9imEUGJbD-10" target="q521U4jFGGL9imEUGJbD-11">
          <mxGeometry relative="1" as="geometry" />
        </mxCell>
        <mxCell id="q521U4jFGGL9imEUGJbD-13" style="edgeStyle=orthogonalEdgeStyle;orthogonalLoop=1;jettySize=auto;html=1;" edge="1" parent="1" source="q521U4jFGGL9imEUGJbD-10" target="q521U4jFGGL9imEUGJbD-5">
          <mxGeometry relative="1" as="geometry" />
        </mxCell>
        <mxCell id="q521U4jFGGL9imEUGJbD-51" style="edgeStyle=orthogonalEdgeStyle;orthogonalLoop=1;jettySize=auto;html=1;entryX=1;entryY=0.5;entryDx=0;entryDy=0;entryPerimeter=0;" edge="1" parent="1" source="q521U4jFGGL9imEUGJbD-10" target="q521U4jFGGL9imEUGJbD-46">
          <mxGeometry relative="1" as="geometry">
            <Array as="points">
              <mxPoint x="810" y="790" />
              <mxPoint x="810" y="975" />
            </Array>
          </mxGeometry>
        </mxCell>
        <mxCell id="q521U4jFGGL9imEUGJbD-10" value="User account page" style="verticalLabelPosition=bottom;verticalAlign=top;html=1;shape=card;whiteSpace=wrap;size=40;arcSize=0;shadow=1;rounded=0;" vertex="1" parent="1">
          <mxGeometry x="450" y="655" width="300" height="190" as="geometry" />
        </mxCell>
        <mxCell id="q521U4jFGGL9imEUGJbD-11" value="Social media access" style="verticalLabelPosition=bottom;verticalAlign=top;html=1;shape=process;whiteSpace=wrap;rounded=1;size=0.14;arcSize=37;fillColor=#f5f5f5;fontColor=#333333;strokeColor=#666666;shadow=1;" vertex="1" parent="1">
          <mxGeometry x="170" y="695" width="180" height="20" as="geometry" />
        </mxCell>
        <mxCell id="q521U4jFGGL9imEUGJbD-25" value="Search bar" style="rounded=1;whiteSpace=wrap;html=1;absoluteArcSize=1;arcSize=14;strokeWidth=2;fillColor=#d5e8d4;strokeColor=#82b366;glass=0;shadow=1;" vertex="1" parent="1">
          <mxGeometry x="515" y="140" width="170" height="30" as="geometry" />
        </mxCell>
        <mxCell id="q521U4jFGGL9imEUGJbD-26" value="Filtering and sorting" style="rounded=1;whiteSpace=wrap;html=1;absoluteArcSize=1;arcSize=14;strokeWidth=2;fillColor=#d5e8d4;strokeColor=#82b366;glass=0;shadow=1;" vertex="1" parent="1">
          <mxGeometry x="515" y="196" width="170" height="30" as="geometry" />
        </mxCell>
        <mxCell id="q521U4jFGGL9imEUGJbD-29" value="Recipe recommendation" style="rounded=1;whiteSpace=wrap;html=1;absoluteArcSize=1;arcSize=14;strokeWidth=2;fillColor=#d5e8d4;strokeColor=#82b366;glass=0;shadow=1;" vertex="1" parent="1">
          <mxGeometry x="515" y="250" width="170" height="30" as="geometry" />
        </mxCell>
        <mxCell id="q521U4jFGGL9imEUGJbD-34" value="Ingredients" style="rounded=1;whiteSpace=wrap;html=1;absoluteArcSize=1;arcSize=14;strokeWidth=2;fillColor=#d5e8d4;strokeColor=#82b366;glass=0;shadow=1;" vertex="1" parent="1">
          <mxGeometry x="525" y="362" width="170" height="30" as="geometry" />
        </mxCell>
        <mxCell id="q521U4jFGGL9imEUGJbD-35" value="Step-by-step Instructions" style="rounded=1;whiteSpace=wrap;html=1;absoluteArcSize=1;arcSize=14;strokeWidth=2;fillColor=#d5e8d4;strokeColor=#82b366;glass=0;shadow=1;" vertex="1" parent="1">
          <mxGeometry x="525" y="402" width="170" height="30" as="geometry" />
        </mxCell>
        <mxCell id="q521U4jFGGL9imEUGJbD-36" value="Nutritional information" style="rounded=1;whiteSpace=wrap;html=1;absoluteArcSize=1;arcSize=14;strokeWidth=2;fillColor=#d5e8d4;strokeColor=#82b366;glass=0;shadow=1;" vertex="1" parent="1">
          <mxGeometry x="525" y="442" width="170" height="30" as="geometry" />
        </mxCell>
        <mxCell id="q521U4jFGGL9imEUGJbD-37" value="Photos and videos" style="rounded=1;whiteSpace=wrap;html=1;absoluteArcSize=1;arcSize=14;strokeWidth=2;fillColor=#d5e8d4;strokeColor=#82b366;glass=0;shadow=1;" vertex="1" parent="1">
          <mxGeometry x="525" y="482" width="170" height="30" as="geometry" />
        </mxCell>
        <mxCell id="q521U4jFGGL9imEUGJbD-38" value="Cooking tips" style="rounded=1;whiteSpace=wrap;html=1;absoluteArcSize=1;arcSize=14;strokeWidth=2;fillColor=#d5e8d4;strokeColor=#82b366;glass=0;shadow=1;" vertex="1" parent="1">
          <mxGeometry x="525" y="524" width="170" height="30" as="geometry" />
        </mxCell>
        <mxCell id="q521U4jFGGL9imEUGJbD-39" value="Reviews and feedback" style="rounded=1;whiteSpace=wrap;html=1;absoluteArcSize=1;arcSize=14;strokeWidth=2;fillColor=#d5e8d4;strokeColor=#82b366;glass=0;shadow=1;" vertex="1" parent="1">
          <mxGeometry x="525" y="564" width="170" height="30" as="geometry" />
        </mxCell>
        <mxCell id="q521U4jFGGL9imEUGJbD-42" value="User type" style="rounded=1;whiteSpace=wrap;html=1;absoluteArcSize=1;arcSize=14;strokeWidth=2;fillColor=#d5e8d4;strokeColor=#82b366;glass=0;shadow=1;" vertex="1" parent="1">
          <mxGeometry x="525" y="670" width="170" height="30" as="geometry" />
        </mxCell>
        <mxCell id="q521U4jFGGL9imEUGJbD-43" value="Personalized books" style="rounded=1;whiteSpace=wrap;html=1;absoluteArcSize=1;arcSize=14;strokeWidth=2;fillColor=#d5e8d4;strokeColor=#82b366;glass=0;shadow=1;" vertex="1" parent="1">
          <mxGeometry x="525" y="710" width="170" height="30" as="geometry" />
        </mxCell>
        <mxCell id="q521U4jFGGL9imEUGJbD-44" value="Recommendations" style="rounded=1;whiteSpace=wrap;html=1;absoluteArcSize=1;arcSize=14;strokeWidth=2;fillColor=#d5e8d4;strokeColor=#82b366;glass=0;shadow=1;" vertex="1" parent="1">
          <mxGeometry x="525" y="750" width="170" height="30" as="geometry" />
        </mxCell>
        <mxCell id="q521U4jFGGL9imEUGJbD-45" value="Social media integration" style="rounded=1;whiteSpace=wrap;html=1;absoluteArcSize=1;arcSize=14;strokeWidth=2;fillColor=#d5e8d4;strokeColor=#82b366;glass=0;shadow=1;" vertex="1" parent="1">
          <mxGeometry x="525" y="790" width="170" height="30" as="geometry" />
        </mxCell>
        <mxCell id="q521U4jFGGL9imEUGJbD-46" value="Premium content" style="verticalLabelPosition=bottom;verticalAlign=top;html=1;shape=card;whiteSpace=wrap;size=40;arcSize=0;shadow=1;rounded=0;" vertex="1" parent="1">
          <mxGeometry x="275" y="880" width="300" height="190" as="geometry" />
        </mxCell>
        <mxCell id="q521U4jFGGL9imEUGJbD-47" value="Exclusive content." style="rounded=1;whiteSpace=wrap;html=1;absoluteArcSize=1;arcSize=14;strokeWidth=2;fillColor=#d5e8d4;strokeColor=#82b366;glass=0;shadow=1;" vertex="1" parent="1">
          <mxGeometry x="350" y="920" width="170" height="30" as="geometry" />
        </mxCell>
        <mxCell id="q521U4jFGGL9imEUGJbD-48" value="Meal plan" style="rounded=1;whiteSpace=wrap;html=1;absoluteArcSize=1;arcSize=14;strokeWidth=2;fillColor=#d5e8d4;strokeColor=#82b366;glass=0;shadow=1;" vertex="1" parent="1">
          <mxGeometry x="350" y="960" width="170" height="30" as="geometry" />
        </mxCell>
        <mxCell id="q521U4jFGGL9imEUGJbD-49" value="Cooking classes" style="rounded=1;whiteSpace=wrap;html=1;absoluteArcSize=1;arcSize=14;strokeWidth=2;fillColor=#d5e8d4;strokeColor=#82b366;glass=0;shadow=1;" vertex="1" parent="1">
          <mxGeometry x="350" y="1000" width="170" height="30" as="geometry" />
        </mxCell>
        <mxCell id="q521U4jFGGL9imEUGJbD-53" style="edgeStyle=orthogonalEdgeStyle;orthogonalLoop=1;jettySize=auto;html=1;entryX=0.5;entryY=1;entryDx=0;entryDy=0;entryPerimeter=0;" edge="1" parent="1" source="q521U4jFGGL9imEUGJbD-52" target="q521U4jFGGL9imEUGJbD-1">
          <mxGeometry relative="1" as="geometry" />
        </mxCell>
        <mxCell id="q521U4jFGGL9imEUGJbD-52" value="Indredient and nutrition database" style="shape=cylinder3;whiteSpace=wrap;html=1;boundedLbl=1;backgroundOutline=1;size=15;fillColor=#dae8fc;strokeColor=#6c8ebf;shadow=1;" vertex="1" parent="1">
          <mxGeometry x="120" y="407" width="90" height="100" as="geometry" />
        </mxCell>
      </root>
    </mxGraphModel>
  </diagram>
</mxfile>
